<svg width="500" height="500" viewBox="0 0 500 500" fill="none" xmlns="http://www.w3.org/2000/svg">
<g clip-path="url(#clip0_259_1224)">
<circle cx="249.5" cy="250.5" r="247.5" fill="#29004E"/>
<path d="M280.68 266.88C280.68 283.173 269.933 291.32 248.44 291.32C226.947 291.32 214.467 280.4 211 258.56C188.813 280.053 162.12 290.8 130.92 290.8C107 290.8 87.9333 284.733 73.72 272.6C59.8533 260.12 52.92 243.307 52.92 222.16C52.92 201.013 60.72 183.16 76.32 168.6C91.92 154.04 117.747 146.76 153.8 146.76C174.947 146.76 193.667 149.187 209.96 154.04V112.96C209.96 93.2 204.933 77.4267 194.88 65.64C185.173 53.5067 170.787 47.44 151.72 47.44C132.653 47.44 118.96 52.64 110.64 63.04C102.667 73.0933 98.16 84.88 97.12 98.4C88.8 99.0933 81.8667 97.36 76.32 93.2C70.7733 89.04 68 82.28 68 72.92C68 58.0133 75.6267 45.7067 90.88 36C106.133 25.9467 125.893 20.92 150.16 20.92C171.307 20.92 191.413 26.12 210.48 36.52C221.227 42.0666 229.893 51.2533 236.48 64.08C243.067 76.9067 246.36 92.5067 246.36 110.88V262.72L280.68 266.88ZM209.96 185.24C194.013 176.573 175.467 172.24 154.32 172.24C133.173 172.24 117.573 176.227 107.52 184.2C97.8133 192.173 92.96 203.093 92.96 216.96C92.96 230.827 97.2933 241.92 105.96 250.24C114.627 258.213 126.587 262.2 141.84 262.2C166.107 262.2 188.813 252.84 209.96 234.12V185.24Z" fill="#F6F6F9"/>
<path d="M390 189.92C412.187 189.92 429.693 194.427 442.52 203.44C455.693 212.453 462.28 224.413 462.28 239.32C462.28 258.387 452.573 267.573 433.16 266.88C432.813 254.053 428.307 242.787 419.64 233.08C411.32 223.027 398.667 218 381.68 218C357.067 218 338.173 228.227 325 248.68C312.173 269.133 305.76 294.96 305.76 326.16C305.76 353.547 311.133 377.12 321.88 396.88C334.36 418.72 355.853 429.64 386.36 429.64C411.32 429.64 435.067 420.453 457.6 402.08C462.107 405.2 464.36 409.36 464.36 414.56C464.36 424.96 454.48 435.187 434.72 445.24C414.96 454.947 393.813 459.8 371.28 459.8C338.347 459.8 312.867 448.36 294.84 425.48C277.16 402.6 267.973 371.4 267.28 331.88C266.587 292.013 277.16 258.387 299 231C320.84 203.613 351.173 189.92 390 189.92Z" fill="#F6F6F9"/>
</g>
<defs>
<clipPath id="clip0_259_1224">
<rect width="500" height="500" fill="white"/>
</clipPath>
</defs>
</svg>
